<svg width="17" height="20" viewBox="0 0 17 20" fill="none" xmlns="http://www.w3.org/2000/svg">
<g clip-path="url(#clip0_29_14)">
<path fill-rule="evenodd" clip-rule="evenodd" d="M0 6.76099V7.98801H16.0166V6.76099L8.0083 4L0 6.76099ZM8.8663 5.41299H8.2943C8.2943 5.25499 8.1663 5.12701 8.0083 5.12701C7.8504 5.12701 7.7223 5.25499 7.7223 5.41299C7.7223 5.57099 7.8504 5.69901 8.0083 5.69901C8.4257 5.69901 8.7828 5.999 8.8536 6.41C8.9243 6.822 8.688 7.22401 8.2943 7.36301V7.702H7.7223V7.36301C7.3807 7.24201 7.1518 6.92001 7.1503 6.55701H7.7223C7.7223 6.71501 7.8504 6.84399 8.0083 6.84399C8.1663 6.84399 8.2943 6.71501 8.2943 6.55701C8.2943 6.40001 8.1663 6.271 8.0083 6.271C7.5909 6.272 7.2338 5.972 7.163 5.56C7.0923 5.149 7.3286 4.747 7.7223 4.608V4.26901H8.2943V4.608C8.6359 4.729 8.8648 5.05099 8.8663 5.41299ZM14.5866 8.56V9.13199H1.4301V8.56H14.5866ZM1.4301 9.70401H2.5741V18.284H1.4301V9.70401ZM12.8705 11.42V9.70401H3.1461V11.42H12.8705ZM13.4425 9.70401H14.5866V18.284H13.4425V9.70401ZM12.8705 18.284H9.4384V15.138C9.4384 14.98 9.3103 14.852 9.1524 14.852H6.8643C6.7063 14.852 6.5782 14.98 6.5782 15.138V18.284H3.1461V11.992H12.8705V18.284ZM8.8663 15.424V18.284H7.1503V15.424H8.8663ZM6.336 20L6.5267 18.856H0V20H6.336ZM7.1066 18.856L7.0588 19.142H8.9578L8.91 18.856H7.1066ZM9.6807 20H16.0166V18.856H9.4899L9.6807 20ZM6.9161 20L6.9636 19.714H9.0531L9.1005 20H6.9161Z" fill="#7C7C7C"/>
</g>
<defs>
<clipPath id="clip0_29_14">
<rect width="16.02" height="20" fill="white"/>
</clipPath>
</defs>
</svg>
