<svg width="21" height="20" viewBox="0 0 21 20" fill="none" xmlns="http://www.w3.org/2000/svg">
<g clip-path="url(#clip0_29_12)">
<path fill-rule="evenodd" clip-rule="evenodd" d="M20.6316 6.474V5.36801C20.6316 5.16501 20.4666 5 20.2632 5H0.368401C0.165001 5 0 5.16501 0 5.36801V6.474H20.6316ZM0 7.20999H20.6316V8.68399H0V7.20999ZM20.2632 19H0.368401C0.165001 19 0 18.835 0 18.632V9.42099H20.6316V18.632C20.6316 18.835 20.4666 19 20.2632 19ZM16.5789 15.088C16.3017 14.766 15.8986 14.58 15.4737 14.579C14.7953 14.578 14.2044 15.041 14.0428 15.7C13.8813 16.358 14.1912 17.042 14.7931 17.355C15.3951 17.668 16.1328 17.528 16.5789 17.017C16.9817 17.483 17.6311 17.649 18.2079 17.434C18.7844 17.219 19.1669 16.668 19.1669 16.053C19.1669 15.437 18.7844 14.887 18.2079 14.672C17.6311 14.457 16.9817 14.623 16.5789 15.088ZM6.6316 14.947H2.2105C2.0071 14.947 1.8421 15.112 1.8421 15.316C1.8421 15.519 2.0071 15.684 2.2105 15.684H6.6316C6.835 15.684 7 15.519 7 15.316C7 15.112 6.835 14.947 6.6316 14.947ZM16.2105 16.053C16.2105 16.459 15.8806 16.789 15.4737 16.789C15.0667 16.789 14.7368 16.459 14.7368 16.053C14.7368 15.646 15.0667 15.316 15.4737 15.316C15.8806 15.316 16.2105 15.646 16.2105 16.053ZM18.4209 16.053C18.4209 16.459 18.091 16.789 17.6841 16.789C17.2772 16.789 16.9473 16.459 16.9473 16.053C16.9473 15.646 17.2772 15.316 17.6841 15.316C18.091 15.316 18.4209 15.646 18.4209 16.053ZM6.6316 16.421H2.2105C2.0071 16.421 1.8421 16.586 1.8421 16.79C1.8421 16.993 2.0071 17.158 2.2105 17.158H6.6316C6.835 17.158 7 16.993 7 16.79C7 16.586 6.835 16.421 6.6316 16.421Z" fill="white"/>
</g>
<defs>
<clipPath id="clip0_29_12">
<rect width="20.63" height="20" fill="white"/>
</clipPath>
</defs>
</svg>
