<svg width="18" height="20" viewBox="0 0 18 20" fill="none" xmlns="http://www.w3.org/2000/svg">
<g clip-path="url(#clip0_29_13)">
<path fill-rule="evenodd" clip-rule="evenodd" d="M1.4934 5C0.668601 5 0 5.71999 0 6.60699C0 7.49499 0.668601 8.21399 1.4934 8.21399H15V5H1.4934ZM17.1429 12.183H13.6272C12.2426 12.183 11.1161 13.279 11.1161 14.626C11.1161 15.973 12.2426 17.068 13.6272 17.068H17.1429V20H2.5112C1.1243 20 0 18.906 0 17.557V8.75C0.421 9.06 0.939201 9.25101 1.5067 9.25101H17.1429V12.183ZM13.7679 13.036C12.9703 13.036 12.3214 13.757 12.3214 14.643C12.3214 15.529 12.9703 16.25 13.7679 16.25H17.1429V13.036H13.7679ZM14.25 15.179H13.2857V14.107H14.25V15.179Z" fill="#7C7C7C"/>
</g>
<defs>
<clipPath id="clip0_29_13">
<rect width="17.14" height="20" fill="white"/>
</clipPath>
</defs>
</svg>
