<svg width="12" height="18" viewBox="0 0 12 18" fill="none" xmlns="http://www.w3.org/2000/svg">
<g clip-path="url(#clip0_5_22)">
<path fill-rule="evenodd" clip-rule="evenodd" d="M10.828 5.51157C10.462 5.27057 9.96903 5.37057 9.72603 5.73057L4.50304 13.5146L1.22603 11.0686C0.85503 10.8346 0.364039 10.9406 0.126039 11.3046C-0.110961 11.6696 -0.00396252 12.1556 0.365037 12.3896L4.30203 15.2556C4.36603 15.2966 4.43504 15.3266 4.50504 15.3476C4.50604 15.3476 4.50603 15.3476 4.50603 15.3476C4.53903 15.3576 4.57303 15.3636 4.60703 15.3696C4.61103 15.3696 4.61504 15.3716 4.61904 15.3716C4.65604 15.3766 4.69403 15.3796 4.73103 15.3796C4.76403 15.3796 4.79603 15.3776 4.82803 15.3736C4.85303 15.3706 4.87904 15.3656 4.90404 15.3606C4.91004 15.3586 4.91603 15.3586 4.92203 15.3566C5.01503 15.3346 5.10404 15.2946 5.18404 15.2406C5.18504 15.2396 5.18504 15.2396 5.18604 15.2396C5.20904 15.2236 5.23003 15.2066 5.25203 15.1876C5.25603 15.1846 5.26004 15.1816 5.26404 15.1786C5.28104 15.1626 5.29604 15.1466 5.31104 15.1306C5.31904 15.1216 5.32704 15.1146 5.33504 15.1056C5.34604 15.0936 5.35603 15.0796 5.36603 15.0656C5.37603 15.0536 5.38604 15.0416 5.39504 15.0276L11.051 6.59957C11.294 6.23757 11.194 5.75057 10.828 5.51157Z" fill="white"/>
</g>
<defs>
<clipPath id="clip0_5_22">
<rect width="11.18" height="18" fill="white"/>
</clipPath>
</defs>
</svg>
