<svg width="21" height="22" viewBox="0 0 21 22" fill="none" xmlns="http://www.w3.org/2000/svg">
<path fill-rule="evenodd" clip-rule="evenodd" d="M14.2751 8.7646C10.2349 8.7646 6.948 12.0516 6.948 16.0918C6.948 18.5141 8.1298 20.6653 9.9469 22H0.770302C0.344902 22 0 21.6551 0 21.2297V0.770302C0 0.344902 0.344902 0 0.770302 0H13.9039C14.3293 0 14.6742 0.344902 14.6742 0.770302V8.7756C14.5421 8.7685 14.409 8.7646 14.2751 8.7646ZM9.812 4.0919H4.3562C3.9308 4.0919 3.5859 4.4368 3.5859 4.8622C3.5859 5.2876 3.9308 5.6325 4.3562 5.6325H9.812C10.2374 5.6325 10.5823 5.2876 10.5823 4.8622C10.5823 4.4368 10.2374 4.0919 9.812 4.0919ZM9.812 8.1838H4.3562C3.9308 8.1838 3.5858 8.5287 3.5859 8.9541C3.5859 9.3795 3.9308 9.7244 4.3562 9.7244H9.812C10.2374 9.7244 10.5823 9.3795 10.5823 8.9541C10.5823 8.5287 10.2374 8.1838 9.812 8.1838ZM14.2752 21.8782C11.0794 21.8782 8.4886 19.2874 8.4886 16.0916C8.4886 12.8959 11.0793 10.3052 14.2752 10.3052C17.471 10.3052 20.0616 12.8958 20.0616 16.0916C20.0616 19.2875 17.471 21.8782 14.2752 21.8782ZM4.3562 13.8163H5.7201C6.1455 13.8163 6.4904 13.4714 6.4904 13.046C6.4904 12.6206 6.1455 12.2757 5.7201 12.2757H4.3562C3.9308 12.2757 3.5859 12.6206 3.5859 13.046C3.5859 13.4714 3.9308 13.8163 4.3562 13.8163ZM12.5595 13.6061C12.357 13.6061 12.1582 13.6885 12.015 13.8318C11.8716 13.9751 11.7892 14.1739 11.7892 14.3764C11.7892 14.579 11.8716 14.7778 12.015 14.9211C12.1582 15.0644 12.357 15.1468 12.5595 15.1468C12.763 15.1468 12.9609 15.0644 13.1049 14.9211C13.2483 14.7778 13.3299 14.579 13.3299 14.3764C13.3299 14.1739 13.2483 13.9751 13.1049 13.8318C12.9609 13.6885 12.7621 13.6061 12.5595 13.6061ZM16.5248 14.9313C16.8256 14.6305 16.8256 14.1427 16.5248 13.8419C16.2239 13.5412 15.7363 13.5412 15.4353 13.8419L12.0255 17.2518C11.7247 17.5526 11.7247 18.0404 12.0255 18.3412C12.1759 18.4916 12.373 18.5668 12.5702 18.5668C12.7674 18.5668 12.9645 18.4916 13.115 18.3412L16.5248 14.9313ZM15.9905 18.5771C16.1931 18.5771 16.3918 18.4946 16.5352 18.3513C16.6785 18.2081 16.7609 18.0101 16.7609 17.8067C16.7609 17.604 16.6785 17.4053 16.5352 17.262C16.3918 17.1187 16.1931 17.0363 15.9905 17.0363C15.7879 17.0363 15.5892 17.1187 15.4459 17.262C15.3018 17.4053 15.2202 17.604 15.2202 17.8067C15.2202 18.01 15.3018 18.208 15.4459 18.3513C15.5892 18.4946 15.7879 18.5771 15.9905 18.5771Z" fill="url(#paint0_linear_4_5)"/>
<defs>
<linearGradient id="paint0_linear_4_5" x1="10.0308" y1="0" x2="10.0308" y2="22" gradientUnits="userSpaceOnUse">
<stop stop-color="#FFBA10"/>
<stop offset="1" stop-color="#FC7712"/>
</linearGradient>
</defs>
</svg>
