<svg width="14" height="22" viewBox="0 0 14 22" fill="none" xmlns="http://www.w3.org/2000/svg">
<path d="M12.5467 0.653198C12.1116 0.217598 11.5957 0 10.9999 0H2.2001C1.6041 0 1.0886 0.217698 0.653198 0.653198C0.217698 1.0884 0 1.6041 0 2.1999V19.8C0 20.3957 0.217698 20.9114 0.653198 21.3467C1.0886 21.7822 1.6041 22 2.2001 22H10.9999C11.5956 22 12.1116 21.782 12.5466 21.3467C12.9821 20.9114 13.1999 20.3957 13.1999 19.8V2.1999C13.1999 1.6041 12.9824 1.0886 12.5467 0.653198ZM5.2251 2.2H7.9753C8.1587 2.2 8.2501 2.2916 8.2501 2.475C8.2501 2.6583 8.1586 2.7501 7.9753 2.7501H5.2251C5.0418 2.7501 4.9501 2.6583 4.9501 2.475C4.95 2.2916 5.0417 2.2 5.2251 2.2ZM7.5714 20.7711C7.302 21.0401 6.9784 21.1749 6.6001 21.1749C6.2221 21.1749 5.8984 21.0401 5.6291 20.7711C5.3598 20.5016 5.2251 20.1778 5.2251 19.7999C5.2251 19.4217 5.3599 19.098 5.6291 18.8287C5.8983 18.5597 6.2221 18.4246 6.6001 18.4246C6.9784 18.4246 7.3021 18.5597 7.5714 18.8287C7.8407 19.098 7.9753 19.4217 7.9753 19.7999C7.9753 20.1782 7.8405 20.5016 7.5714 20.7711ZM11.5501 17.0501C11.5501 17.1989 11.4958 17.3283 11.3868 17.4369C11.2776 17.5456 11.149 17.5998 11.0003 17.5998H2.2001C2.0511 17.5998 1.9222 17.5455 1.8134 17.4369C1.7046 17.3283 1.6501 17.1989 1.6501 17.0501V4.9502C1.6501 4.8013 1.7045 4.6722 1.8134 4.5635C1.9223 4.4549 2.0511 4.4001 2.2001 4.4001H10.9999C11.149 4.4001 11.2777 4.4546 11.3868 4.5635C11.4958 4.6723 11.5499 4.8013 11.5499 4.9502V17.0501H11.5501Z" fill="url(#paint0_linear_4_14)"/>
<defs>
<linearGradient id="paint0_linear_4_14" x1="6.59995" y1="0" x2="6.59995" y2="22" gradientUnits="userSpaceOnUse">
<stop stop-color="#FFBA10"/>
<stop offset="1" stop-color="#FC7712"/>
</linearGradient>
</defs>
</svg>
