<svg width="13" height="15" viewBox="0 0 13 15" fill="none" xmlns="http://www.w3.org/2000/svg">
<path fill-rule="evenodd" clip-rule="evenodd" d="M0.828995 13.302H9.71201C10.169 13.302 10.54 12.931 10.54 12.473V0.828995C10.54 0.370995 10.169 0 9.71201 0H3.79201V0.274002C3.79501 0.302002 3.797 0.332 3.797 0.362V2.632C3.797 3.275 3.274 3.799 2.63 3.799H0.360001C0.337001 3.799 0.311994 3.797 0.287994 3.795H0V12.473C0 12.931 0.370995 13.302 0.828995 13.302ZM2.63 3.32899H0.360001C0.0490006 3.32899 -0.106993 2.953 0.113007 2.733L2.73 0.115997C2.802 0.0439973 2.88801 0.0130005 2.97501 0.0130005C3.15301 0.0130005 3.325 0.152 3.325 0.362V2.63901C3.322 3.01801 3.015 3.32599 2.636 3.32899H2.63ZM11.45 1.698H11.012V12.473C11.012 13.189 10.429 13.772 9.713 13.772H1.73599V14.171C1.73599 14.629 2.107 15 2.564 15H11.449C11.906 15 12.278 14.629 12.278 14.171V2.52699C12.278 2.06899 11.908 1.698 11.45 1.698ZM2.541 5.58099H8.33501C8.55101 5.58099 8.726 5.75701 8.726 5.97301C8.726 6.18901 8.55101 6.364 8.33501 6.364H2.541C2.325 6.364 2.149 6.18901 2.149 5.97301C2.149 5.75701 2.325 5.58099 2.541 5.58099ZM8.33501 8.487H2.541C2.325 8.487 2.149 8.311 2.149 8.095C2.149 7.879 2.325 7.70399 2.541 7.70399H8.33501C8.55101 7.70399 8.726 7.879 8.726 8.095C8.726 8.311 8.55101 8.487 8.33501 8.487ZM5.437 10.486H2.541C2.325 10.486 2.149 10.31 2.149 10.094C2.149 9.87799 2.325 9.702 2.541 9.702H5.439C5.655 9.702 5.83 9.87799 5.83 10.094C5.83 10.31 5.653 10.486 5.437 10.486Z" fill="white"/>
</svg>
