<svg width="14" height="14" viewBox="0 0 14 14" fill="none" xmlns="http://www.w3.org/2000/svg">
<path fill-rule="evenodd" clip-rule="evenodd" d="M7 0C8.8698 0 10.6276 0.727988 11.9498 2.04999C13.2719 3.37199 14 5.13 14 7C14 8.87 13.2719 10.628 11.9498 11.95C10.6276 13.272 8.8698 14 7 14C5.1302 14 3.3724 13.272 2.0502 11.95C0.728099 10.628 0 8.87 0 7C0 5.13 0.728099 3.37199 2.0502 2.04999C3.3724 0.727988 5.1302 0 7 0ZM1.6406 7C1.6406 9.955 4.0449 12.359 7 12.359C9.9551 12.359 12.3594 9.955 12.3594 7C12.3594 4.045 9.9551 1.64099 7 1.64099C4.0449 1.64099 1.6406 4.045 1.6406 7ZM6.9999 2.48099C4.5082 2.48099 2.481 4.508 2.481 7C2.481 9.492 4.5082 11.519 6.9999 11.519C9.4917 11.519 11.5189 9.492 11.5189 7C11.5189 4.508 9.4917 2.48099 6.9999 2.48099ZM9.884 7.40799H8.153C7.9845 7.88299 7.5313 8.22299 6.9999 8.22299C6.3253 8.22299 5.7766 7.674 5.7766 7C5.7766 6.469 6.1172 6.01498 6.5916 5.84698V3.29901H7.4083V5.84698C7.7549 5.96998 8.0299 6.24501 8.153 6.59201H9.884V7.40799ZM7.0443 6.55701C6.8243 6.55701 6.6455 6.73599 6.6455 6.95599C6.6455 7.17599 6.8243 7.354 7.0443 7.354C7.2642 7.354 7.443 7.17599 7.443 6.95599C7.443 6.73599 7.2642 6.55701 7.0443 6.55701Z" fill="#CECECE"/>
</svg>
