<svg width="15" height="15" viewBox="0 0 15 15" fill="none" xmlns="http://www.w3.org/2000/svg">
<path d="M14.253 13.654L10.685 9.944C11.603 8.853 12.105 7.48099 12.105 6.05299C12.105 2.71499 9.39001 0 6.05301 0C2.71501 0 0 2.71499 0 6.05299C0 9.38999 2.71501 12.105 6.05301 12.105C7.30501 12.105 8.49899 11.727 9.51999 11.01L13.115 14.749C13.266 14.905 13.468 14.991 13.684 14.991C13.889 14.991 14.084 14.913 14.231 14.771C14.545 14.469 14.555 13.968 14.253 13.654ZM6.05301 1.57899C8.51901 1.57899 10.526 3.58599 10.526 6.05299C10.526 8.51899 8.51901 10.526 6.05301 10.526C3.58601 10.526 1.57901 8.51899 1.57901 6.05299C1.57901 3.58599 3.58601 1.57899 6.05301 1.57899Z" fill="white"/>
</svg>
