<svg width="36" height="36" viewBox="0 0 36 36" fill="none" xmlns="http://www.w3.org/2000/svg">
<path fill-rule="evenodd" clip-rule="evenodd" d="M18 35.5C27.665 35.5 35.5 27.665 35.5 18C35.5 8.33502 27.665 0.5 18 0.5C8.33502 0.5 0.5 8.33502 0.5 18C0.5 27.665 8.33502 35.5 18 35.5Z" fill="#58EE7F"/>
<path fill-rule="evenodd" clip-rule="evenodd" d="M27.2751 22.7055C27.3133 22.9979 27.2242 23.2521 27.0082 23.4682L24.4722 25.985C24.3578 26.1122 24.2084 26.2203 24.0241 26.3092C23.8398 26.3982 23.6587 26.4554 23.4808 26.4808C23.468 26.4808 23.4298 26.4841 23.3662 26.4904C23.3028 26.4968 23.2201 26.5 23.1184 26.5C22.8768 26.5 22.4859 26.4587 21.9457 26.376C21.4054 26.2934 20.7444 26.09 19.9627 25.7659C19.1808 25.4417 18.2942 24.9554 17.3027 24.3072C16.3112 23.6589 15.2561 22.7691 14.1375 21.6377C13.2476 20.7606 12.5103 19.9216 11.9256 19.1208C11.3409 18.3199 10.8705 17.5794 10.5146 16.8994C10.1586 16.2192 9.89168 15.6027 9.71371 15.0498C9.53574 14.4968 9.41498 14.0201 9.35143 13.6197C9.28786 13.2193 9.26244 12.9047 9.27515 12.6758C9.28786 12.447 9.29422 12.3199 9.29422 12.2945C9.31964 12.1165 9.37685 11.9354 9.46584 11.751C9.55481 11.5667 9.66286 11.4174 9.78998 11.303L12.326 8.76697C12.504 8.58899 12.7074 8.5 12.9362 8.5C13.1014 8.5 13.2476 8.54767 13.3747 8.64301C13.5018 8.73834 13.6099 8.85596 13.6989 8.99579L15.7391 12.8665C15.8535 13.0699 15.8853 13.2924 15.8345 13.5339C15.7836 13.7754 15.6756 13.9788 15.5103 14.144L14.576 15.0784C14.5506 15.1038 14.5283 15.1451 14.5092 15.2023C14.4902 15.2595 14.4807 15.3072 14.4807 15.3453C14.5315 15.6123 14.6459 15.9174 14.8239 16.2606C14.9764 16.5657 15.2116 16.9375 15.5294 17.376C15.8472 17.8146 16.2984 18.3199 16.8832 18.8919C17.4552 19.4767 17.9637 19.9311 18.4086 20.2553C18.8534 20.5793 19.2254 20.8177 19.5241 20.9703C19.8228 21.1229 20.0517 21.215 20.2105 21.2467L20.4488 21.2944C20.4742 21.2944 20.5156 21.2849 20.5728 21.2658C20.63 21.2467 20.6713 21.2245 20.6967 21.199L21.7836 20.0931C22.0125 19.8898 22.2793 19.788 22.5844 19.788C22.8006 19.788 22.9721 19.8262 23.0992 19.9025H23.1183L26.7983 22.0762C27.0654 22.2416 27.2242 22.4512 27.2751 22.7055Z" fill="white"/>
</svg>
